<mxfile host="app.diagrams.net" modified="2024-05-01T15:17:00.586Z" agent="Mozilla/5.0 (Macintosh; Intel Mac OS X 10_15_7) AppleWebKit/605.1.15 (KHTML, like Gecko) Version/15.6.1 Safari/605.1.15" etag="sWwQlMSvZ43DZJtcWbWq" version="24.3.1" type="device">
  <diagram name="Page-1" id="vmom_NU0XaUHBe5a2mCb">
    <mxGraphModel dx="1316" dy="438" grid="1" gridSize="10" guides="1" tooltips="1" connect="1" arrows="1" fold="1" page="1" pageScale="1" pageWidth="827" pageHeight="1169" math="0" shadow="0">
      <root>
        <mxCell id="0" />
        <mxCell id="1" parent="0" />
        <mxCell id="xf3jF5rfLgfdTNHF2C0z-1" value="&lt;blockquote style=&quot;margin: 0 0 0 40px; border: none; padding: 0px;&quot;&gt;&lt;blockquote style=&quot;margin: 0 0 0 40px; border: none; padding: 0px;&quot;&gt;&lt;blockquote style=&quot;margin: 0 0 0 40px; border: none; padding: 0px;&quot;&gt;&lt;blockquote style=&quot;margin: 0 0 0 40px; border: none; padding: 0px;&quot;&gt;&lt;blockquote style=&quot;margin: 0 0 0 40px; border: none; padding: 0px;&quot;&gt;&lt;blockquote style=&quot;margin: 0 0 0 40px; border: none; padding: 0px;&quot;&gt;&lt;blockquote style=&quot;margin: 0 0 0 40px; border: none; padding: 0px;&quot;&gt;&lt;blockquote style=&quot;margin: 0 0 0 40px; border: none; padding: 0px;&quot;&gt;&lt;blockquote style=&quot;margin: 0 0 0 40px; border: none; padding: 0px;&quot;&gt;&lt;blockquote style=&quot;margin: 0 0 0 40px; border: none; padding: 0px;&quot;&gt;&lt;blockquote style=&quot;margin: 0 0 0 40px; border: none; padding: 0px;&quot;&gt;&lt;blockquote style=&quot;margin: 0 0 0 40px; border: none; padding: 0px;&quot;&gt;&lt;blockquote style=&quot;margin: 0 0 0 40px; border: none; padding: 0px;&quot;&gt;&lt;blockquote style=&quot;margin: 0px 0px 0px 40px; border: none; padding: 0px 0px 345px;&quot;&gt;блокчейн&lt;/blockquote&gt;&lt;/blockquote&gt;&lt;/blockquote&gt;&lt;/blockquote&gt;&lt;/blockquote&gt;&lt;/blockquote&gt;&lt;/blockquote&gt;&lt;/blockquote&gt;&lt;/blockquote&gt;&lt;/blockquote&gt;&lt;/blockquote&gt;&lt;/blockquote&gt;&lt;/blockquote&gt;&lt;/blockquote&gt;" style="rounded=0;whiteSpace=wrap;html=1;" vertex="1" parent="1">
          <mxGeometry x="70" y="155" width="660" height="385" as="geometry" />
        </mxCell>
        <mxCell id="xf3jF5rfLgfdTNHF2C0z-7" value="получение ключа отправителя&lt;div&gt;и публичных параметров&lt;/div&gt;" style="edgeStyle=orthogonalEdgeStyle;rounded=0;orthogonalLoop=1;jettySize=auto;html=1;exitX=0.5;exitY=1;exitDx=0;exitDy=0;entryX=0;entryY=0.5;entryDx=0;entryDy=0;" edge="1" parent="1" source="xf3jF5rfLgfdTNHF2C0z-2" target="xf3jF5rfLgfdTNHF2C0z-4">
          <mxGeometry x="0.25" relative="1" as="geometry">
            <Array as="points">
              <mxPoint x="110" y="340" />
              <mxPoint x="110" y="470" />
            </Array>
            <mxPoint as="offset" />
          </mxGeometry>
        </mxCell>
        <mxCell id="xf3jF5rfLgfdTNHF2C0z-14" value="добавление rekey" style="edgeStyle=orthogonalEdgeStyle;rounded=0;orthogonalLoop=1;jettySize=auto;html=1;exitX=0.75;exitY=0;exitDx=0;exitDy=0;entryX=0;entryY=0.5;entryDx=0;entryDy=0;" edge="1" parent="1" source="xf3jF5rfLgfdTNHF2C0z-2" target="xf3jF5rfLgfdTNHF2C0z-6">
          <mxGeometry relative="1" as="geometry" />
        </mxCell>
        <mxCell id="xf3jF5rfLgfdTNHF2C0z-15" value="отправка&lt;div&gt;зашифрованных&lt;/div&gt;&lt;div&gt;данных&lt;/div&gt;" style="edgeStyle=orthogonalEdgeStyle;rounded=0;orthogonalLoop=1;jettySize=auto;html=1;exitX=1;exitY=0.5;exitDx=0;exitDy=0;entryX=0;entryY=0.5;entryDx=0;entryDy=0;" edge="1" parent="1" source="xf3jF5rfLgfdTNHF2C0z-2" target="xf3jF5rfLgfdTNHF2C0z-3">
          <mxGeometry relative="1" as="geometry" />
        </mxCell>
        <mxCell id="xf3jF5rfLgfdTNHF2C0z-2" value="отправитель" style="rounded=1;whiteSpace=wrap;html=1;" vertex="1" parent="1">
          <mxGeometry x="100" y="300" width="120" height="60" as="geometry" />
        </mxCell>
        <mxCell id="xf3jF5rfLgfdTNHF2C0z-18" value="отправка&lt;div&gt;перешифрованных&lt;/div&gt;&lt;div&gt;данных&lt;/div&gt;" style="edgeStyle=orthogonalEdgeStyle;rounded=0;orthogonalLoop=1;jettySize=auto;html=1;exitX=1;exitY=0.25;exitDx=0;exitDy=0;entryX=0;entryY=0.5;entryDx=0;entryDy=0;" edge="1" parent="1" source="xf3jF5rfLgfdTNHF2C0z-3" target="xf3jF5rfLgfdTNHF2C0z-5">
          <mxGeometry x="-0.0968" y="-5" relative="1" as="geometry">
            <Array as="points">
              <mxPoint x="580" y="315" />
            </Array>
            <mxPoint as="offset" />
          </mxGeometry>
        </mxCell>
        <mxCell id="xf3jF5rfLgfdTNHF2C0z-3" value="прокси сервер" style="rounded=1;whiteSpace=wrap;html=1;" vertex="1" parent="1">
          <mxGeometry x="340" y="300" width="120" height="60" as="geometry" />
        </mxCell>
        <mxCell id="xf3jF5rfLgfdTNHF2C0z-4" value="центр&lt;div&gt;сертификации(CA)&lt;/div&gt;" style="rounded=1;whiteSpace=wrap;html=1;" vertex="1" parent="1">
          <mxGeometry x="330" y="440" width="140" height="60" as="geometry" />
        </mxCell>
        <mxCell id="xf3jF5rfLgfdTNHF2C0z-12" value="получение ключа получателя&lt;div&gt;и публичных параметров&lt;/div&gt;" style="edgeStyle=orthogonalEdgeStyle;rounded=0;orthogonalLoop=1;jettySize=auto;html=1;exitX=0;exitY=1;exitDx=0;exitDy=0;entryX=1;entryY=0.5;entryDx=0;entryDy=0;" edge="1" parent="1" source="xf3jF5rfLgfdTNHF2C0z-5" target="xf3jF5rfLgfdTNHF2C0z-4">
          <mxGeometry relative="1" as="geometry" />
        </mxCell>
        <mxCell id="xf3jF5rfLgfdTNHF2C0z-5" value="получатель" style="rounded=1;whiteSpace=wrap;html=1;" vertex="1" parent="1">
          <mxGeometry x="600" y="300" width="120" height="60" as="geometry" />
        </mxCell>
        <mxCell id="xf3jF5rfLgfdTNHF2C0z-6" value="смарт-контракт" style="ellipse;whiteSpace=wrap;html=1;" vertex="1" parent="1">
          <mxGeometry x="340" y="160" width="120" height="80" as="geometry" />
        </mxCell>
        <mxCell id="xf3jF5rfLgfdTNHF2C0z-8" value="генерация&lt;div&gt;публичный&lt;/div&gt;&lt;div&gt;параметров&lt;/div&gt;" style="edgeStyle=orthogonalEdgeStyle;rounded=0;orthogonalLoop=1;jettySize=auto;html=1;exitX=0.25;exitY=0;exitDx=0;exitDy=0;entryX=0.5;entryY=0;entryDx=0;entryDy=0;" edge="1" parent="1" source="xf3jF5rfLgfdTNHF2C0z-4" target="xf3jF5rfLgfdTNHF2C0z-4">
          <mxGeometry x="-0.4667" y="25" relative="1" as="geometry">
            <Array as="points">
              <mxPoint x="365" y="420" />
              <mxPoint x="400" y="420" />
            </Array>
            <mxPoint x="-15" y="5" as="offset" />
          </mxGeometry>
        </mxCell>
        <mxCell id="xf3jF5rfLgfdTNHF2C0z-10" value="генерация&lt;div&gt;ключей&lt;/div&gt;" style="edgeStyle=orthogonalEdgeStyle;rounded=0;orthogonalLoop=1;jettySize=auto;html=1;exitX=0.75;exitY=0;exitDx=0;exitDy=0;entryX=1;entryY=0;entryDx=0;entryDy=0;" edge="1" parent="1" source="xf3jF5rfLgfdTNHF2C0z-4" target="xf3jF5rfLgfdTNHF2C0z-4">
          <mxGeometry x="0.4667" y="-10" relative="1" as="geometry">
            <Array as="points">
              <mxPoint x="435" y="420" />
              <mxPoint x="470" y="420" />
            </Array>
            <mxPoint x="10" y="-10" as="offset" />
          </mxGeometry>
        </mxCell>
        <mxCell id="xf3jF5rfLgfdTNHF2C0z-13" value="генерация&lt;div&gt;решифровочного&lt;/div&gt;&lt;div&gt;ключа&lt;/div&gt;" style="edgeStyle=orthogonalEdgeStyle;rounded=0;orthogonalLoop=1;jettySize=auto;html=1;exitX=0.25;exitY=0;exitDx=0;exitDy=0;entryX=0.5;entryY=0;entryDx=0;entryDy=0;" edge="1" parent="1" source="xf3jF5rfLgfdTNHF2C0z-2" target="xf3jF5rfLgfdTNHF2C0z-2">
          <mxGeometry x="-0.3333" y="36" relative="1" as="geometry">
            <Array as="points">
              <mxPoint x="130" y="270" />
              <mxPoint x="160" y="270" />
            </Array>
            <mxPoint x="-30" y="16" as="offset" />
          </mxGeometry>
        </mxCell>
        <mxCell id="xf3jF5rfLgfdTNHF2C0z-17" value="перешифрование&lt;div&gt;данных&lt;/div&gt;" style="edgeStyle=orthogonalEdgeStyle;rounded=0;orthogonalLoop=1;jettySize=auto;html=1;exitX=0.5;exitY=0;exitDx=0;exitDy=0;entryX=0.75;entryY=0;entryDx=0;entryDy=0;" edge="1" parent="1" source="xf3jF5rfLgfdTNHF2C0z-3" target="xf3jF5rfLgfdTNHF2C0z-3">
          <mxGeometry x="0.5385" y="40" relative="1" as="geometry">
            <Array as="points">
              <mxPoint x="400" y="250" />
              <mxPoint x="430" y="250" />
            </Array>
            <mxPoint as="offset" />
          </mxGeometry>
        </mxCell>
        <mxCell id="xf3jF5rfLgfdTNHF2C0z-19" value="расшифровка данных" style="edgeStyle=orthogonalEdgeStyle;rounded=0;orthogonalLoop=1;jettySize=auto;html=1;exitX=0.25;exitY=0;exitDx=0;exitDy=0;entryX=0.5;entryY=0;entryDx=0;entryDy=0;" edge="1" parent="1" source="xf3jF5rfLgfdTNHF2C0z-5" target="xf3jF5rfLgfdTNHF2C0z-5">
          <mxGeometry relative="1" as="geometry">
            <Array as="points">
              <mxPoint x="630" y="260" />
              <mxPoint x="660" y="260" />
            </Array>
          </mxGeometry>
        </mxCell>
        <mxCell id="xf3jF5rfLgfdTNHF2C0z-20" value="получение&lt;div&gt;rekey&lt;/div&gt;" style="edgeStyle=orthogonalEdgeStyle;rounded=0;orthogonalLoop=1;jettySize=auto;html=1;exitX=0.25;exitY=0;exitDx=0;exitDy=0;entryX=0.25;entryY=0.938;entryDx=0;entryDy=0;entryPerimeter=0;" edge="1" parent="1" source="xf3jF5rfLgfdTNHF2C0z-3" target="xf3jF5rfLgfdTNHF2C0z-6">
          <mxGeometry x="-0.0764" y="30" relative="1" as="geometry">
            <mxPoint as="offset" />
          </mxGeometry>
        </mxCell>
      </root>
    </mxGraphModel>
  </diagram>
</mxfile>
